<mxfile host="app.diagrams.net" modified="2023-03-01T23:52:58.354Z" agent="5.0 (Windows NT 10.0; Win64; x64) AppleWebKit/537.36 (KHTML, like Gecko) Chrome/110.0.0.0 Safari/537.36" etag="5Dul9n9w4qKCoppAw3u4" version="20.8.23" type="github">
  <diagram name="PÃ¡gina-1" id="gicYPCMdAOHdztm5mdr9">
    <mxGraphModel dx="880" dy="476" grid="1" gridSize="10" guides="1" tooltips="1" connect="1" arrows="1" fold="1" page="1" pageScale="1" pageWidth="827" pageHeight="1169" math="0" shadow="0">
      <root>
        <mxCell id="0" />
        <mxCell id="1" parent="0" />
        <mxCell id="f4sCcM1gQ5uB72wHh5gj-1" value="class Equipo" style="swimlane;fontStyle=0;childLayout=stackLayout;horizontal=1;startSize=26;fillColor=#dae8fc;horizontalStack=0;resizeParent=1;resizeParentMax=0;resizeLast=0;collapsible=1;marginBottom=0;strokeColor=#6c8ebf;" vertex="1" parent="1">
          <mxGeometry x="70" y="30" width="160" height="260" as="geometry" />
        </mxCell>
        <mxCell id="f4sCcM1gQ5uB72wHh5gj-2" value="int numeroDeParticipantes" style="text;strokeColor=none;fillColor=none;align=left;verticalAlign=top;spacingLeft=4;spacingRight=4;overflow=hidden;rotatable=0;points=[[0,0.5],[1,0.5]];portConstraint=eastwest;" vertex="1" parent="f4sCcM1gQ5uB72wHh5gj-1">
          <mxGeometry y="26" width="160" height="26" as="geometry" />
        </mxCell>
        <mxCell id="f4sCcM1gQ5uB72wHh5gj-3" value="int numeroDeEntrenadores" style="text;strokeColor=none;fillColor=none;align=left;verticalAlign=top;spacingLeft=4;spacingRight=4;overflow=hidden;rotatable=0;points=[[0,0.5],[1,0.5]];portConstraint=eastwest;" vertex="1" parent="f4sCcM1gQ5uB72wHh5gj-1">
          <mxGeometry y="52" width="160" height="26" as="geometry" />
        </mxCell>
        <mxCell id="f4sCcM1gQ5uB72wHh5gj-10" value="int playeras" style="text;strokeColor=none;fillColor=none;align=left;verticalAlign=top;spacingLeft=4;spacingRight=4;overflow=hidden;rotatable=0;points=[[0,0.5],[1,0.5]];portConstraint=eastwest;" vertex="1" parent="f4sCcM1gQ5uB72wHh5gj-1">
          <mxGeometry y="78" width="160" height="26" as="geometry" />
        </mxCell>
        <mxCell id="f4sCcM1gQ5uB72wHh5gj-15" value="int patrocinadores" style="text;strokeColor=none;fillColor=none;align=left;verticalAlign=top;spacingLeft=4;spacingRight=4;overflow=hidden;rotatable=0;points=[[0,0.5],[1,0.5]];portConstraint=eastwest;" vertex="1" parent="f4sCcM1gQ5uB72wHh5gj-1">
          <mxGeometry y="104" width="160" height="26" as="geometry" />
        </mxCell>
        <mxCell id="f4sCcM1gQ5uB72wHh5gj-31" value="int pagoDeJugadores" style="text;strokeColor=none;fillColor=none;align=left;verticalAlign=top;spacingLeft=4;spacingRight=4;overflow=hidden;rotatable=0;points=[[0,0.5],[1,0.5]];portConstraint=eastwest;" vertex="1" parent="f4sCcM1gQ5uB72wHh5gj-1">
          <mxGeometry y="130" width="160" height="26" as="geometry" />
        </mxCell>
        <mxCell id="f4sCcM1gQ5uB72wHh5gj-33" value="int tiempoDeEntrenamiento" style="text;strokeColor=none;fillColor=none;align=left;verticalAlign=top;spacingLeft=4;spacingRight=4;overflow=hidden;rotatable=0;points=[[0,0.5],[1,0.5]];portConstraint=eastwest;" vertex="1" parent="f4sCcM1gQ5uB72wHh5gj-1">
          <mxGeometry y="156" width="160" height="26" as="geometry" />
        </mxCell>
        <mxCell id="f4sCcM1gQ5uB72wHh5gj-34" value="int numeroDeSuplentes" style="text;strokeColor=none;fillColor=none;align=left;verticalAlign=top;spacingLeft=4;spacingRight=4;overflow=hidden;rotatable=0;points=[[0,0.5],[1,0.5]];portConstraint=eastwest;" vertex="1" parent="f4sCcM1gQ5uB72wHh5gj-1">
          <mxGeometry y="182" width="160" height="26" as="geometry" />
        </mxCell>
        <mxCell id="f4sCcM1gQ5uB72wHh5gj-35" value="int estadisticas" style="text;strokeColor=none;fillColor=none;align=left;verticalAlign=top;spacingLeft=4;spacingRight=4;overflow=hidden;rotatable=0;points=[[0,0.5],[1,0.5]];portConstraint=eastwest;" vertex="1" parent="f4sCcM1gQ5uB72wHh5gj-1">
          <mxGeometry y="208" width="160" height="26" as="geometry" />
        </mxCell>
        <mxCell id="f4sCcM1gQ5uB72wHh5gj-32" value="int dineroParaComida" style="text;strokeColor=none;fillColor=none;align=left;verticalAlign=top;spacingLeft=4;spacingRight=4;overflow=hidden;rotatable=0;points=[[0,0.5],[1,0.5]];portConstraint=eastwest;" vertex="1" parent="f4sCcM1gQ5uB72wHh5gj-1">
          <mxGeometry y="234" width="160" height="26" as="geometry" />
        </mxCell>
        <mxCell id="f4sCcM1gQ5uB72wHh5gj-5" value="class playeras" style="swimlane;fontStyle=0;childLayout=stackLayout;horizontal=1;startSize=26;fillColor=#fff2cc;horizontalStack=0;resizeParent=1;resizeParentMax=0;resizeLast=0;collapsible=1;marginBottom=0;strokeColor=#d6b656;" vertex="1" parent="1">
          <mxGeometry x="290" y="27" width="160" height="156" as="geometry" />
        </mxCell>
        <mxCell id="f4sCcM1gQ5uB72wHh5gj-6" value="char colorCamisa[20]" style="text;strokeColor=none;fillColor=none;align=left;verticalAlign=top;spacingLeft=4;spacingRight=4;overflow=hidden;rotatable=0;points=[[0,0.5],[1,0.5]];portConstraint=eastwest;" vertex="1" parent="f4sCcM1gQ5uB72wHh5gj-5">
          <mxGeometry y="26" width="160" height="26" as="geometry" />
        </mxCell>
        <mxCell id="f4sCcM1gQ5uB72wHh5gj-7" value="char colorShorts[20]" style="text;strokeColor=none;fillColor=none;align=left;verticalAlign=top;spacingLeft=4;spacingRight=4;overflow=hidden;rotatable=0;points=[[0,0.5],[1,0.5]];portConstraint=eastwest;" vertex="1" parent="f4sCcM1gQ5uB72wHh5gj-5">
          <mxGeometry y="52" width="160" height="26" as="geometry" />
        </mxCell>
        <mxCell id="f4sCcM1gQ5uB72wHh5gj-8" value="int numeroDeCamisas" style="text;strokeColor=none;fillColor=none;align=left;verticalAlign=top;spacingLeft=4;spacingRight=4;overflow=hidden;rotatable=0;points=[[0,0.5],[1,0.5]];portConstraint=eastwest;" vertex="1" parent="f4sCcM1gQ5uB72wHh5gj-5">
          <mxGeometry y="78" width="160" height="26" as="geometry" />
        </mxCell>
        <mxCell id="f4sCcM1gQ5uB72wHh5gj-22" value="int numeroDeShorts" style="text;strokeColor=none;fillColor=none;align=left;verticalAlign=top;spacingLeft=4;spacingRight=4;overflow=hidden;rotatable=0;points=[[0,0.5],[1,0.5]];portConstraint=eastwest;" vertex="1" parent="f4sCcM1gQ5uB72wHh5gj-5">
          <mxGeometry y="104" width="160" height="26" as="geometry" />
        </mxCell>
        <mxCell id="f4sCcM1gQ5uB72wHh5gj-23" value="int numeroDeParDeTennis" style="text;strokeColor=none;fillColor=none;align=left;verticalAlign=top;spacingLeft=4;spacingRight=4;overflow=hidden;rotatable=0;points=[[0,0.5],[1,0.5]];portConstraint=eastwest;" vertex="1" parent="f4sCcM1gQ5uB72wHh5gj-5">
          <mxGeometry y="130" width="160" height="26" as="geometry" />
        </mxCell>
        <mxCell id="f4sCcM1gQ5uB72wHh5gj-11" value="class patrocinadores" style="swimlane;fontStyle=0;childLayout=stackLayout;horizontal=1;startSize=26;fillColor=#fff2cc;horizontalStack=0;resizeParent=1;resizeParentMax=0;resizeLast=0;collapsible=1;marginBottom=0;strokeColor=#d6b656;" vertex="1" parent="1">
          <mxGeometry x="480" y="27" width="200" height="104" as="geometry" />
        </mxCell>
        <mxCell id="f4sCcM1gQ5uB72wHh5gj-12" value="int cantidadDePatrocinadores" style="text;strokeColor=none;fillColor=none;align=left;verticalAlign=top;spacingLeft=4;spacingRight=4;overflow=hidden;rotatable=0;points=[[0,0.5],[1,0.5]];portConstraint=eastwest;" vertex="1" parent="f4sCcM1gQ5uB72wHh5gj-11">
          <mxGeometry y="26" width="200" height="26" as="geometry" />
        </mxCell>
        <mxCell id="f4sCcM1gQ5uB72wHh5gj-13" value="int pagoPorPatrocinadorIndividual" style="text;strokeColor=none;fillColor=none;align=left;verticalAlign=top;spacingLeft=4;spacingRight=4;overflow=hidden;rotatable=0;points=[[0,0.5],[1,0.5]];portConstraint=eastwest;" vertex="1" parent="f4sCcM1gQ5uB72wHh5gj-11">
          <mxGeometry y="52" width="200" height="26" as="geometry" />
        </mxCell>
        <mxCell id="f4sCcM1gQ5uB72wHh5gj-14" value="+ field: type" style="text;strokeColor=none;fillColor=none;align=left;verticalAlign=top;spacingLeft=4;spacingRight=4;overflow=hidden;rotatable=0;points=[[0,0.5],[1,0.5]];portConstraint=eastwest;" vertex="1" parent="f4sCcM1gQ5uB72wHh5gj-11">
          <mxGeometry y="78" width="200" height="26" as="geometry" />
        </mxCell>
        <mxCell id="f4sCcM1gQ5uB72wHh5gj-16" value="class pagoJugadores" style="swimlane;fontStyle=0;childLayout=stackLayout;horizontal=1;startSize=26;fillColor=#fff2cc;horizontalStack=0;resizeParent=1;resizeParentMax=0;resizeLast=0;collapsible=1;marginBottom=0;strokeColor=#d6b656;" vertex="1" parent="1">
          <mxGeometry x="490" y="150" width="180" height="78" as="geometry" />
        </mxCell>
        <mxCell id="f4sCcM1gQ5uB72wHh5gj-17" value="int PagoDeJugadores" style="text;strokeColor=none;fillColor=none;align=left;verticalAlign=top;spacingLeft=4;spacingRight=4;overflow=hidden;rotatable=0;points=[[0,0.5],[1,0.5]];portConstraint=eastwest;" vertex="1" parent="f4sCcM1gQ5uB72wHh5gj-16">
          <mxGeometry y="26" width="180" height="26" as="geometry" />
        </mxCell>
        <mxCell id="f4sCcM1gQ5uB72wHh5gj-18" value="int PagoHaciendaPorJugador" style="text;strokeColor=none;fillColor=none;align=left;verticalAlign=top;spacingLeft=4;spacingRight=4;overflow=hidden;rotatable=0;points=[[0,0.5],[1,0.5]];portConstraint=eastwest;" vertex="1" parent="f4sCcM1gQ5uB72wHh5gj-16">
          <mxGeometry y="52" width="180" height="26" as="geometry" />
        </mxCell>
        <mxCell id="f4sCcM1gQ5uB72wHh5gj-20" style="edgeStyle=orthogonalEdgeStyle;rounded=0;orthogonalLoop=1;jettySize=auto;html=1;entryX=0;entryY=0.163;entryDx=0;entryDy=0;entryPerimeter=0;" edge="1" parent="1" source="f4sCcM1gQ5uB72wHh5gj-10" target="f4sCcM1gQ5uB72wHh5gj-5">
          <mxGeometry relative="1" as="geometry" />
        </mxCell>
        <mxCell id="f4sCcM1gQ5uB72wHh5gj-24" style="edgeStyle=orthogonalEdgeStyle;rounded=0;orthogonalLoop=1;jettySize=auto;html=1;entryX=0;entryY=0.125;entryDx=0;entryDy=0;entryPerimeter=0;" edge="1" parent="1" source="f4sCcM1gQ5uB72wHh5gj-15" target="f4sCcM1gQ5uB72wHh5gj-11">
          <mxGeometry relative="1" as="geometry">
            <Array as="points">
              <mxPoint x="260" y="147" />
              <mxPoint x="260" y="200" />
              <mxPoint x="460" y="200" />
              <mxPoint x="460" y="40" />
            </Array>
          </mxGeometry>
        </mxCell>
        <mxCell id="f4sCcM1gQ5uB72wHh5gj-26" style="edgeStyle=orthogonalEdgeStyle;rounded=0;orthogonalLoop=1;jettySize=auto;html=1;entryX=-0.011;entryY=0.154;entryDx=0;entryDy=0;entryPerimeter=0;exitX=1;exitY=0.5;exitDx=0;exitDy=0;" edge="1" parent="1" source="f4sCcM1gQ5uB72wHh5gj-31" target="f4sCcM1gQ5uB72wHh5gj-16">
          <mxGeometry relative="1" as="geometry">
            <Array as="points">
              <mxPoint x="250" y="173" />
              <mxPoint x="250" y="220" />
              <mxPoint x="470" y="220" />
              <mxPoint x="470" y="162" />
            </Array>
          </mxGeometry>
        </mxCell>
        <mxCell id="f4sCcM1gQ5uB72wHh5gj-27" value="class estadisticas" style="swimlane;fontStyle=0;childLayout=stackLayout;horizontal=1;startSize=26;fillColor=#fff2cc;horizontalStack=0;resizeParent=1;resizeParentMax=0;resizeLast=0;collapsible=1;marginBottom=0;strokeColor=#d6b656;" vertex="1" parent="1">
          <mxGeometry x="290" y="230" width="140" height="78" as="geometry" />
        </mxCell>
        <mxCell id="f4sCcM1gQ5uB72wHh5gj-28" value="int numeroDeLesionados" style="text;strokeColor=none;fillColor=none;align=left;verticalAlign=top;spacingLeft=4;spacingRight=4;overflow=hidden;rotatable=0;points=[[0,0.5],[1,0.5]];portConstraint=eastwest;" vertex="1" parent="f4sCcM1gQ5uB72wHh5gj-27">
          <mxGeometry y="26" width="140" height="26" as="geometry" />
        </mxCell>
        <mxCell id="f4sCcM1gQ5uB72wHh5gj-29" value="char mejorJugador[100]" style="text;strokeColor=none;fillColor=none;align=left;verticalAlign=top;spacingLeft=4;spacingRight=4;overflow=hidden;rotatable=0;points=[[0,0.5],[1,0.5]];portConstraint=eastwest;" vertex="1" parent="f4sCcM1gQ5uB72wHh5gj-27">
          <mxGeometry y="52" width="140" height="26" as="geometry" />
        </mxCell>
        <mxCell id="f4sCcM1gQ5uB72wHh5gj-36" style="edgeStyle=orthogonalEdgeStyle;rounded=0;orthogonalLoop=1;jettySize=auto;html=1;entryX=-0.007;entryY=0.167;entryDx=0;entryDy=0;entryPerimeter=0;" edge="1" parent="1" source="f4sCcM1gQ5uB72wHh5gj-35" target="f4sCcM1gQ5uB72wHh5gj-27">
          <mxGeometry relative="1" as="geometry" />
        </mxCell>
      </root>
    </mxGraphModel>
  </diagram>
</mxfile>
